<svg xmlns="http://www.w3.org/2000/svg" xmlns:xlink="http://www.w3.org/1999/xlink" viewBox="0 0 651.69 374.4"><defs><style>.cls-1{fill:none;}.cls-2{clip-path:url(#clip-path);}.cls-3{fill:#134f26;}.cls-4{fill:#73bf90;}.cls-5{fill:#539159;}.cls-6,.cls-7{fill:#010101;}.cls-7{stroke:#010101;stroke-miterlimit:10;stroke-width:0.25px;}</style><clipPath id="clip-path" transform="translate(-255.09 -130.56)"><rect class="cls-1" x="153.15" y="-2.27" width="591.28" height="841.89"/></clipPath></defs><title>Logo horizontal</title><g id="Layer_1" data-name="Layer 1"><g class="cls-2"><path class="cls-3" d="M260.43,269.9s35.91-44.56,117.05-31.26c0,0,78.81,16,129,102.43,0,0,28.59,38.9,26.27,102.42,0,0-3.63,59.83-44,61.3,0,0,38.46-9.09-10.53-103.53,0,0-15.63-31.93-48.22-64.85,0,0-50.88-64.18-104.42-60.52,0,0-40.79-1.33-59.08,20.28,0,0-9.09-19.28-6.09-26.27" transform="translate(-255.09 -130.56)"/></g><g class="cls-2"><path class="cls-4" d="M572.68,177.46s-81.8-2.66-129.36,109.4c0,0-27.17,56.25-6.65,138.34C453.3,491.71,500,494,500,494s-3.44,8.81-11.2,10.81c-16.29,1.33-84-2.44-127.92-116.17,0,0-13-40.9.67-105.42S442,133.23,535.1,130.57c0,0,57.2-2,82.48,49.55Z" transform="translate(-255.09 -130.56)"/></g><g class="cls-2"><path class="cls-5" d="M260.43,269.9s-4.88,63.63,107.07,92.45c0,0,72.72,14.19,139-20.62,0,0,97.43-45.44,66.17-164.27,0,0,29.93-1,44.89,2.66.5,1,8.43,22.61,8.21,50.32s-2.44,105.31-101.32,159.84c0,0-28.37,15.74-102.42,10.87-54.23-3.58-100.65-27.72-100.65-27.72s-88.57-48-61-103.53" transform="translate(-255.09 -130.56)"/></g></g><g id="Layer_3" data-name="Layer 3"><path class="cls-6" d="M667,369.06l10,25.31h-1.77l-1.94-4.93a18.71,18.71,0,0,1-6.73,1.08,18.41,18.41,0,0,1-6.77-1.12l-1.91,5h-1.76l9.79-25.31Zm5.65,18.86-6.19-15.76-6.09,15.73c.22.07.47.18.76.25a17.27,17.27,0,0,0,5.4.76A16.57,16.57,0,0,0,672.61,387.92Z" transform="translate(-255.09 -130.56)"/><path class="cls-6" d="M695.54,392.68l-.22.21a7.5,7.5,0,0,1-4.82,1.8h-.18a7.78,7.78,0,0,1-5-1.73,6.43,6.43,0,0,1-2.23-4l1.62-.25a4.74,4.74,0,0,0,1.69,2.95,6.25,6.25,0,0,0,7.89-.1,5.85,5.85,0,0,0,1.76-4.5,5.06,5.06,0,0,0-2.12-4,10.21,10.21,0,0,0-4-1.62,8.39,8.39,0,0,1-4.61-2.2,6.57,6.57,0,0,1-2.05-4.79,5.85,5.85,0,0,1,2-4.06,7.27,7.27,0,0,1,5-1.8,7.45,7.45,0,0,1,5,1.83,6.19,6.19,0,0,1,1.8,2.74l-1.66.25a4.35,4.35,0,0,0-1.22-1.76,6,6,0,0,0-7.67-.11,4.18,4.18,0,0,0-1.47,3,4.81,4.81,0,0,0,1.58,3.56,7,7,0,0,0,3.78,1.76,11.31,11.31,0,0,1,4.61,1.91,7,7,0,0,1,2.81,5.15A7.53,7.53,0,0,1,695.54,392.68Z" transform="translate(-255.09 -130.56)"/><path class="cls-6" d="M718.4,394.76h-.47a12.14,12.14,0,0,1-8.49-3.85,13.42,13.42,0,0,1,0-18.53,12.19,12.19,0,0,1,8.49-3.86h.47a12.34,12.34,0,0,1,8.49,3.86,13.5,13.5,0,0,1,0,18.53A12.29,12.29,0,0,1,718.4,394.76Zm-.25-24.62A11.52,11.52,0,1,0,729,381.63,11.3,11.3,0,0,0,718.15,370.14Z" transform="translate(-255.09 -130.56)"/><path class="cls-6" d="M761.27,389.08a10.76,10.76,0,0,1-1.51,1.87,12.34,12.34,0,0,1-8.49,3.81h-.47a12.43,12.43,0,0,1-8.53-3.81,13.21,13.21,0,0,1,0-18.36,12.43,12.43,0,0,1,8.53-3.81h.47a12.34,12.34,0,0,1,8.49,3.81,10.76,10.76,0,0,1,1.51,1.87l-1.51.69a10.94,10.94,0,0,0-8.74-4.72,11.37,11.37,0,0,0,0,22.71,11,11,0,0,0,8.74-4.75Z" transform="translate(-255.09 -130.56)"/><path class="cls-6" d="M770.71,369.06h1.66v25.31h-1.66Z" transform="translate(-255.09 -130.56)"/><path class="cls-6" d="M792,369.06l10,25.31h-1.76l-1.94-4.93a18.71,18.71,0,0,1-6.73,1.08,18.41,18.41,0,0,1-6.77-1.12l-1.91,5h-1.76l9.79-25.31Zm5.65,18.86-6.19-15.76-6.08,15.73c.22.07.47.18.76.25a17.27,17.27,0,0,0,5.4.76A16.5,16.5,0,0,0,797.63,387.92Z" transform="translate(-255.09 -130.56)"/><path class="cls-6" d="M830.5,389.08A10.76,10.76,0,0,1,829,391a12.36,12.36,0,0,1-8.49,3.81H820A12.43,12.43,0,0,1,811.5,391a13.21,13.21,0,0,1,0-18.36,12.43,12.43,0,0,1,8.53-3.81h.47a12.36,12.36,0,0,1,8.49,3.81,10.76,10.76,0,0,1,1.51,1.87l-1.51.69a11,11,0,0,0-8.75-4.72,11.37,11.37,0,0,0,0,22.71,11.06,11.06,0,0,0,8.75-4.75Z" transform="translate(-255.09 -130.56)"/><path class="cls-6" d="M839.94,369.06h1.65v25.31h-1.65Z" transform="translate(-255.09 -130.56)"/><path class="cls-6" d="M863.69,394.76h-.46a12.18,12.18,0,0,1-8.5-3.85,13.42,13.42,0,0,1,0-18.53,12.23,12.23,0,0,1,8.5-3.86h.46a12.35,12.35,0,0,1,8.5,3.86,13.53,13.53,0,0,1,0,18.53A12.29,12.29,0,0,1,863.69,394.76Zm-.25-24.62a11.52,11.52,0,1,0,10.8,11.49A11.3,11.3,0,0,0,863.44,370.14Zm3.82-8.89-7,5.26-.65-.83,6.59-5.69Z" transform="translate(-255.09 -130.56)"/><path class="cls-6" d="M902.29,369.14v25.23H901.1l-15.26-21.82v21.82h-1.62v-25.2h1.26l15.15,21.71V369.14Z" transform="translate(-255.09 -130.56)"/><path class="cls-6" d="M623.67,368.16,655,447.61h-5.54l-6.1-15.48c-4.07,1.58-11,3.39-21.14,3.39S604.91,433.59,601,432l-6,15.6h-5.54l30.74-79.45Zm17.75,59.22L622,377.88l-19.1,49.39c.68.22,1.47.56,2.37.79a54.3,54.3,0,0,0,17,2.37C631.7,430.43,638,428.73,641.42,427.38Z" transform="translate(-255.09 -130.56)"/><path class="cls-7" d="M680.32,444.55l-.39.39a13.63,13.63,0,0,1-8.71,3.25h-.32a14,14,0,0,1-9-3.12,11.58,11.58,0,0,1-4-7.15l2.92-.45a8.52,8.52,0,0,0,3.06,5.33,11.25,11.25,0,0,0,14.23-.2,10.54,10.54,0,0,0,3.19-8.12,9.14,9.14,0,0,0-3.84-7.15,18.66,18.66,0,0,0-7.21-2.93c-2.8-.65-5.72-1.3-8.32-4a11.85,11.85,0,0,1-3.71-8.65,10.65,10.65,0,0,1,3.51-7.35,13.89,13.89,0,0,1,17.94.07,11.13,11.13,0,0,1,3.25,4.94l-3,.46a8,8,0,0,0-2.21-3.19,10.88,10.88,0,0,0-13.84-.2,7.64,7.64,0,0,0-2.67,5.4c-.13,2.21.91,4.42,2.86,6.44s4.23,2.53,6.83,3.18a20.25,20.25,0,0,1,8.32,3.45,12.47,12.47,0,0,1,5.07,9.29A13.52,13.52,0,0,1,680.32,444.55Z" transform="translate(-255.09 -130.56)"/><path class="cls-7" d="M694.36,447.61h-3V403.15l1-.33c.59-.13,14.63-4.42,22.56,1.43,3.51,2.6,5.26,6.63,5.26,12s-1.75,9.49-5.26,12c-6.31,4.68-16.45,2.93-20.61,1.95Zm0-20.41c3.19.84,13.26,2.86,18.85-1.3,2.73-1.95,4-5.2,4-9.62s-1.3-7.61-4-9.62c-5.65-4.16-15.66-2.08-18.85-1.3Z" transform="translate(-255.09 -130.56)"/><path class="cls-7" d="M754,444.68v2.93H727.32V402h25.87V405H730.31v22.94h17.55v3H730.31v13.78Z" transform="translate(-255.09 -130.56)"/><path class="cls-7" d="M778.41,431.16l9.75,16.45h-3.45l-9.49-16.06a37.75,37.75,0,0,1-11.18-1.1v17.16h-3v-44.4l1-.32c.59-.2,14.56-4.49,22.56,1.36,3.51,2.6,5.26,6.7,5.26,12.16s-1.75,9.55-5.26,12.15A16.54,16.54,0,0,1,778.41,431.16Zm4.48-5c2.67-2,4-5.27,4-9.75s-1.36-7.74-4-9.75c-5.65-4.16-15.66-2.08-18.85-1.24v22C767.23,428.24,777.24,430.32,782.89,426.16Z" transform="translate(-255.09 -130.56)"/><path class="cls-7" d="M833.27,440.39l-.85.91c-.71.72-1.43,1.37-2.21,2a22.07,22.07,0,0,1-13.06,4.87h-.85a22.49,22.49,0,0,1-15.21-6.89,23.88,23.88,0,0,1,0-33.15,22.27,22.27,0,0,1,15.21-6.89h.85a22.28,22.28,0,0,1,15.27,6.89l.39.39-2.34,1.89a19.36,19.36,0,0,0-13.71-6.24c-10.73.25-19.37,9.36-19.37,20.54S806,445,816.76,445.2a19.26,19.26,0,0,0,13.45-5.91v-8.45H815.72v-3h17.55Z" transform="translate(-255.09 -130.56)"/><path class="cls-7" d="M867,444.68v2.93H840.35V402h25.87V405H843.34v22.94h17.55v3H843.34v13.78Z" transform="translate(-255.09 -130.56)"/><path class="cls-7" d="M891.44,431.16l9.75,16.45h-3.44l-9.49-16.06a37.71,37.71,0,0,1-11.18-1.1v17.16h-3v-44.4l1-.32c.58-.2,14.56-4.49,22.55,1.36,3.51,2.6,5.27,6.7,5.27,12.16s-1.76,9.55-5.27,12.15A16.41,16.41,0,0,1,891.44,431.16Zm4.49-5c2.66-2,4-5.27,4-9.75s-1.37-7.74-4-9.75c-5.66-4.16-15.67-2.08-18.85-1.24v22C880.26,428.24,890.27,430.32,895.93,426.16Z" transform="translate(-255.09 -130.56)"/><path class="cls-6" d="M601.42,459.14l12.19,30.94h-2.15l-2.38-6a26.07,26.07,0,0,1-16.5,0l-2.33,6.07h-2.16l12-30.94Zm6.91,23.06-7.57-19.27-7.43,19.23c.26.09.57.22.92.31a21.16,21.16,0,0,0,6.6.92A20.42,20.42,0,0,0,608.33,482.2Z" transform="translate(-255.09 -130.56)"/><path class="cls-6" d="M642.17,479l6.6,11.13h-2.33L640,479.21a25.41,25.41,0,0,1-7.57-.75v11.62h-2V460l.7-.22c.4-.13,9.86-3,15.27.93,2.38,1.76,3.57,4.53,3.57,8.23s-1.19,6.47-3.57,8.23A11.18,11.18,0,0,1,642.17,479Zm3-3.39c1.81-1.37,2.73-3.57,2.73-6.6s-.92-5.24-2.73-6.6c-3.82-2.82-10.6-1.41-12.76-.84V476.4C634.6,477,641.38,478.37,645.2,475.56Z" transform="translate(-255.09 -130.56)"/><path class="cls-6" d="M692.2,485.2l-.57.61c-.49.49-1,.93-1.5,1.37a15.07,15.07,0,0,1-8.85,3.3h-.57a15.29,15.29,0,0,1-10.3-4.67,16.16,16.16,0,0,1,0-22.44,15.11,15.11,0,0,1,10.3-4.67h.57a15.13,15.13,0,0,1,10.35,4.67l.26.26-1.58,1.28a13.15,13.15,0,0,0-9.29-4.23,13.91,13.91,0,0,0,0,27.77,13,13,0,0,0,9.11-4v-5.72h-9.81v-2H692.2Z" transform="translate(-255.09 -130.56)"/><path class="cls-6" d="M727.92,488.1v2h-18V459.23H727.4v2H711.91v15.54h11.88v2H711.91v9.33Z" transform="translate(-255.09 -130.56)"/><path class="cls-6" d="M767.7,459.23v30.85h-1.45l-18.66-26.67v26.67h-2v-30.8h1.54l18.53,26.53V459.23Z" transform="translate(-255.09 -130.56)"/><path class="cls-6" d="M804.09,461.12h-8.8v29h-2v-29h-8.8v-2h19.58Z" transform="translate(-255.09 -130.56)"/><path class="cls-6" d="M821.33,459.14h2v30.94h-2Z" transform="translate(-255.09 -130.56)"/><path class="cls-6" d="M864.46,459.23v30.85H863l-18.65-26.67v26.67h-2v-30.8h1.54l18.53,26.53V459.23Z" transform="translate(-255.09 -130.56)"/><path class="cls-6" d="M894.6,459.14l12.18,30.94h-2.15l-2.38-6a26.07,26.07,0,0,1-16.5,0l-2.33,6.07h-2.16l12-30.94Zm6.9,23.06-7.56-19.27-7.44,19.23c.26.09.57.22.92.31a21.16,21.16,0,0,0,6.6.92A20.42,20.42,0,0,0,901.5,482.2Z" transform="translate(-255.09 -130.56)"/></g></svg>