<svg id="Layer_1" data-name="Layer 1" xmlns="http://www.w3.org/2000/svg" xmlns:xlink="http://www.w3.org/1999/xlink" viewBox="0 0 370.69 374.4"><defs><style>.cls-1{fill:none;}.cls-2{clip-path:url(#clip-path);}.cls-3{fill:#134f26;}.cls-4{fill:#73bf90;}.cls-5{fill:#539159;}</style><clipPath id="clip-path" transform="translate(-101.94 -132.83)"><rect class="cls-1" width="591.28" height="841.89"/></clipPath></defs><title>Logo</title><g class="cls-2"><path class="cls-3" d="M107.27,272.17s35.92-44.56,117.06-31.26c0,0,78.81,16,129,102.43,0,0,28.6,38.9,26.27,102.42,0,0-3.63,59.83-44,61.3,0,0,38.46-9.09-10.53-103.53,0,0-15.63-31.93-48.22-64.85,0,0-50.88-64.18-104.42-60.52,0,0-40.79-1.33-59.08,20.28,0,0-9.09-19.28-6.1-26.27" transform="translate(-101.94 -132.83)"/></g><g class="cls-2"><path class="cls-4" d="M419.53,179.73s-81.81-2.66-129.36,109.4c0,0-27.17,56.25-6.65,138.34,16.63,66.51,63.29,68.78,63.29,68.78s-3.43,8.81-11.19,10.81c-16.3,1.33-84-2.44-127.92-116.17,0,0-13-40.9.66-105.42S288.84,135.5,382,132.84c0,0,57.2-2,82.47,49.55Z" transform="translate(-101.94 -132.83)"/></g><g class="cls-2"><path class="cls-5" d="M107.27,272.17s-4.87,63.63,107.08,92.45c0,0,72.72,14.19,139-20.62,0,0,97.44-45.45,66.18-164.27,0,0,29.93-1,44.89,2.66.5,1,8.43,22.61,8.2,50.32S470.19,338,371.31,392.55c0,0-28.38,15.74-102.42,10.87-54.24-3.58-100.65-27.72-100.65-27.72s-88.57-48-61-103.53" transform="translate(-101.94 -132.83)"/></g></svg>