<svg xmlns="http://www.w3.org/2000/svg" xmlns:xlink="http://www.w3.org/1999/xlink" viewBox="0 0 370.69 533.16"><defs><style>.cls-1{fill:none;}.cls-2{clip-path:url(#clip-path);}.cls-3{fill:#134f26;}.cls-4{fill:#73bf90;}.cls-5{fill:#539159;}.cls-6,.cls-7{fill:#010101;}.cls-7{stroke:#010101;stroke-miterlimit:10;stroke-width:0.25px;}</style><clipPath id="clip-path" transform="translate(-8.6 -9.7)"><rect class="cls-1" x="-93.34" y="-123.13" width="591.28" height="841.89"/></clipPath></defs><title>Logo vertical</title><g id="Layer_1" data-name="Layer 1"><g class="cls-2"><path class="cls-3" d="M13.93,149.05s35.91-44.56,117-31.26c0,0,78.81,16,129,102.42,0,0,28.6,38.91,26.27,102.42,0,0-3.63,59.83-44,61.3,0,0,38.47-9.09-10.53-103.53,0,0-15.63-31.92-48.22-64.85,0,0-50.88-64.18-104.41-60.52,0,0-40.8-1.33-59.09,20.29,0,0-9.09-19.29-6.09-26.27" transform="translate(-8.6 -9.7)"/></g><g class="cls-2"><path class="cls-4" d="M326.18,56.6S244.38,53.94,196.83,166c0,0-27.18,56.24-6.66,138.33,16.63,66.51,63.3,68.78,63.3,68.78s-3.44,8.82-11.2,10.81c-16.29,1.33-84-2.44-127.92-116.17,0,0-13-40.9.67-105.41S195.5,12.37,288.61,9.71c0,0,57.19-2,82.47,49.55Z" transform="translate(-8.6 -9.7)"/></g><g class="cls-2"><path class="cls-5" d="M13.93,149.05S9.05,212.67,121,241.49c0,0,72.71,14.19,139-20.61,0,0,97.43-45.45,66.17-164.28,0,0,29.93-1,44.9,2.66.49,1,8.42,22.61,8.2,50.33S376.84,214.89,278,269.43c0,0-28.38,15.74-102.43,10.86-54.23-3.57-100.65-27.71-100.65-27.71s-88.56-48-61-103.53" transform="translate(-8.6 -9.7)"/></g></g><g id="Layer_3" data-name="Layer 3"><path class="cls-6" d="M115.71,421.45l10,25.3h-1.77L122,441.82a18.71,18.71,0,0,1-6.73,1.08,18.19,18.19,0,0,1-6.77-1.12l-1.91,5h-1.76l9.79-25.3Zm5.66,18.86-6.2-15.77-6.08,15.73a6.78,6.78,0,0,0,.76.25,19.68,19.68,0,0,0,11.52-.21Z" transform="translate(-8.6 -9.7)"/><path class="cls-6" d="M144.3,445.06l-.22.22a7.61,7.61,0,0,1-4.82,1.8h-.18a7.84,7.84,0,0,1-5-1.73,6.45,6.45,0,0,1-2.23-4l1.62-.25a4.72,4.72,0,0,0,1.69,2.95,6.25,6.25,0,0,0,7.89-.11,5.82,5.82,0,0,0,1.76-4.5,5.06,5.06,0,0,0-2.13-4,10.26,10.26,0,0,0-4-1.62,8.44,8.44,0,0,1-4.61-2.19,6.57,6.57,0,0,1-2.05-4.79,5.9,5.9,0,0,1,1.94-4.07,7.7,7.7,0,0,1,9.94,0,6.11,6.11,0,0,1,1.8,2.73l-1.66.26a4.48,4.48,0,0,0-1.22-1.77,6,6,0,0,0-7.67-.11,4.22,4.22,0,0,0-1.47,3,4.76,4.76,0,0,0,1.58,3.56,7.06,7.06,0,0,0,3.78,1.77,11,11,0,0,1,4.61,1.91,6.88,6.88,0,0,1,2.8,5.14A7.47,7.47,0,0,1,144.3,445.06Z" transform="translate(-8.6 -9.7)"/><path class="cls-6" d="M167.16,447.15h-.47a12.22,12.22,0,0,1-8.49-3.85,13.44,13.44,0,0,1,0-18.54,12.18,12.18,0,0,1,8.49-3.85h.47a12.33,12.33,0,0,1,8.49,3.85,13.52,13.52,0,0,1,0,18.54A12.38,12.38,0,0,1,167.16,447.15Zm-.25-24.62A11.52,11.52,0,1,0,177.71,434,11.28,11.28,0,0,0,166.91,422.53Z" transform="translate(-8.6 -9.7)"/><path class="cls-6" d="M210,441.46a10.4,10.4,0,0,1-1.51,1.87,12.41,12.41,0,0,1-8.49,3.82h-.47a12.49,12.49,0,0,1-8.53-3.82A13.2,13.2,0,0,1,191,425a12.49,12.49,0,0,1,8.53-3.82H200a12.41,12.41,0,0,1,8.49,3.82,10.06,10.06,0,0,1,1.51,1.87l-1.51.68a10.94,10.94,0,0,0-8.75-4.71,11.37,11.37,0,1,0,8.75,18Z" transform="translate(-8.6 -9.7)"/><path class="cls-6" d="M219.47,421.45h1.65v25.3h-1.65Z" transform="translate(-8.6 -9.7)"/><path class="cls-6" d="M240.74,421.45l10,25.3H249L247,441.82a18.66,18.66,0,0,1-6.73,1.08,18.17,18.17,0,0,1-6.76-1.12l-1.91,5h-1.76l9.79-25.3Zm5.65,18.86-6.19-15.77-6.08,15.73a6.78,6.78,0,0,0,.76.25,19.65,19.65,0,0,0,11.51-.21Z" transform="translate(-8.6 -9.7)"/><path class="cls-6" d="M279.26,441.46a10.85,10.85,0,0,1-1.51,1.87,12.42,12.42,0,0,1-8.5,3.82h-.46a12.53,12.53,0,0,1-8.54-3.82,13.23,13.23,0,0,1,0-18.35,12.53,12.53,0,0,1,8.54-3.82h.46a12.42,12.42,0,0,1,8.5,3.82,10.48,10.48,0,0,1,1.51,1.87l-1.51.68a10.94,10.94,0,0,0-8.75-4.71,11.37,11.37,0,1,0,8.75,18Z" transform="translate(-8.6 -9.7)"/><path class="cls-6" d="M288.7,421.45h1.65v25.3H288.7Z" transform="translate(-8.6 -9.7)"/><path class="cls-6" d="M312.45,447.15H312a12.26,12.26,0,0,1-8.5-3.85,13.44,13.44,0,0,1,0-18.54,12.22,12.22,0,0,1,8.5-3.85h.46a12.36,12.36,0,0,1,8.5,3.85,13.54,13.54,0,0,1,0,18.54A12.4,12.4,0,0,1,312.45,447.15Zm-.25-24.62A11.52,11.52,0,1,0,323,434,11.28,11.28,0,0,0,312.2,422.53Zm3.82-8.89-6.95,5.25-.65-.83,6.59-5.68Z" transform="translate(-8.6 -9.7)"/><path class="cls-6" d="M351,421.52v25.23h-1.18l-15.27-21.81v21.81H333V421.56h1.26l15.15,21.7V421.52Z" transform="translate(-8.6 -9.7)"/><path class="cls-6" d="M72.43,420.55,103.73,500H98.2l-6.1-15.48c-4.07,1.58-11,3.39-21.14,3.39S53.67,486,49.72,484.4l-6,15.59H38.19l30.74-79.44Zm17.74,59.21L70.74,430.27l-19.1,49.38c.68.23,1.47.56,2.37.79A54.3,54.3,0,0,0,71,482.81C80.46,482.81,86.78,481.12,90.17,479.76Z" transform="translate(-8.6 -9.7)"/><path class="cls-7" d="M129.08,496.94l-.39.39a13.74,13.74,0,0,1-8.71,3.25h-.32a14.09,14.09,0,0,1-9-3.12,11.61,11.61,0,0,1-4-7.15l2.92-.46a8.49,8.49,0,0,0,3.06,5.33,11.25,11.25,0,0,0,14.23-.19,10.56,10.56,0,0,0,3.19-8.13,9.16,9.16,0,0,0-3.84-7.15,18.48,18.48,0,0,0-7.21-2.92c-2.8-.65-5.72-1.3-8.32-4a11.83,11.83,0,0,1-3.71-8.65,10.63,10.63,0,0,1,3.51-7.34,13.2,13.2,0,0,1,9-3.25,13.42,13.42,0,0,1,9,3.31,11.13,11.13,0,0,1,3.25,4.94l-3,.46a8,8,0,0,0-2.21-3.19,10.88,10.88,0,0,0-13.84-.19A7.6,7.6,0,0,0,110,464.3c-.13,2.21.91,4.42,2.86,6.44s4.23,2.54,6.83,3.18a20.25,20.25,0,0,1,8.32,3.45,12.49,12.49,0,0,1,5.07,9.3A13.54,13.54,0,0,1,129.08,496.94Z" transform="translate(-8.6 -9.7)"/><path class="cls-7" d="M143.12,500h-3V455.53l1-.33c.59-.13,14.63-4.42,22.56,1.43,3.51,2.6,5.26,6.63,5.26,12s-1.75,9.49-5.26,12c-6.31,4.68-16.45,2.92-20.61,1.95Zm0-20.41c3.19.85,13.26,2.86,18.85-1.3,2.73-1.95,4-5.2,4-9.62s-1.3-7.61-4-9.62c-5.65-4.16-15.66-2.08-18.85-1.3Z" transform="translate(-8.6 -9.7)"/><path class="cls-7" d="M202.73,497.07V500H176.08V454.42H202v2.93H179.07V480.3h17.55v3H179.07v13.78Z" transform="translate(-8.6 -9.7)"/><path class="cls-7" d="M227.17,483.55,236.92,500h-3.45L224,483.94a37.66,37.66,0,0,1-11.18-1.11V500h-3v-44.4l1-.32c.59-.2,14.56-4.49,22.56,1.36,3.51,2.6,5.26,6.7,5.26,12.16s-1.75,9.56-5.26,12.16A16.7,16.7,0,0,1,227.17,483.55Zm4.48-5c2.67-2,4-5.26,4-9.75s-1.36-7.74-4-9.75C226,454.88,216,457,212.8,457.8v22C216,480.62,226,482.7,231.65,478.54Z" transform="translate(-8.6 -9.7)"/><path class="cls-7" d="M282,492.78l-.85.91c-.71.71-1.43,1.36-2.21,2a22.15,22.15,0,0,1-13.06,4.88h-.85a22.54,22.54,0,0,1-15.21-6.89,23.88,23.88,0,0,1,0-33.15,22.24,22.24,0,0,1,15.21-6.9h.85a22.24,22.24,0,0,1,15.27,6.9l.39.38-2.34,1.89a19.36,19.36,0,0,0-13.71-6.24c-10.73.26-19.37,9.36-19.37,20.54s8.64,20.28,19.37,20.48A19.23,19.23,0,0,0,279,491.67v-8.45H264.48v-3H282Z" transform="translate(-8.6 -9.7)"/><path class="cls-7" d="M315.76,497.07V500H289.11V454.42H315v2.93H292.1V480.3h17.55v3H292.1v13.78Z" transform="translate(-8.6 -9.7)"/><path class="cls-7" d="M340.2,483.55,350,500h-3.44L337,483.94a37.7,37.7,0,0,1-11.18-1.11V500h-3v-44.4l1-.32c.59-.2,14.56-4.49,22.56,1.36,3.51,2.6,5.26,6.7,5.26,12.16S350,478.35,346.44,481A16.57,16.57,0,0,1,340.2,483.55Zm4.49-5c2.66-2,4-5.26,4-9.75s-1.37-7.74-4-9.75C339,454.88,329,457,325.83,457.8v22C329,480.62,339,482.7,344.69,478.54Z" transform="translate(-8.6 -9.7)"/><path class="cls-6" d="M50.18,511.53l12.19,30.93H60.22l-2.38-6a22.88,22.88,0,0,1-8.23,1.32,22.31,22.31,0,0,1-8.27-1.37L39,542.46H36.85l12-30.93Zm6.91,23.06-7.57-19.28-7.43,19.23c.26.09.57.22.92.31a21.1,21.1,0,0,0,6.6.93A20.42,20.42,0,0,0,57.09,534.59Z" transform="translate(-8.6 -9.7)"/><path class="cls-6" d="M90.93,531.33l6.6,11.13H95.19L88.77,531.6a25.75,25.75,0,0,1-7.57-.75v11.61h-2V512.41l.7-.22c.4-.13,9.86-3,15.27.92,2.38,1.76,3.57,4.54,3.57,8.23s-1.19,6.47-3.57,8.23A11.18,11.18,0,0,1,90.93,531.33Zm3-3.39c1.81-1.36,2.73-3.56,2.73-6.6s-.92-5.23-2.73-6.6c-3.83-2.82-10.6-1.41-12.76-.84v14.88C83.36,529.35,90.13,530.76,94,527.94Z" transform="translate(-8.6 -9.7)"/><path class="cls-6" d="M141,537.58l-.58.62c-.48.48-1,.92-1.49,1.36a15,15,0,0,1-8.85,3.3h-.57a15.28,15.28,0,0,1-10.3-4.66,16.17,16.17,0,0,1,0-22.45,15.06,15.06,0,0,1,10.3-4.66H130a15,15,0,0,1,10.34,4.66l.27.27-1.59,1.27a13.1,13.1,0,0,0-9.28-4.22,13.91,13.91,0,0,0,0,27.77,13.06,13.06,0,0,0,9.11-4v-5.72h-9.82v-2H141Z" transform="translate(-8.6 -9.7)"/><path class="cls-6" d="M176.68,540.48v2h-18V511.62h17.51v2H160.66v15.53h11.89v2H160.66v9.32Z" transform="translate(-8.6 -9.7)"/><path class="cls-6" d="M216.46,511.62v30.84H215L196.35,515.8v26.66h-2v-30.8h1.54l18.53,26.54V511.62Z" transform="translate(-8.6 -9.7)"/><path class="cls-6" d="M252.85,513.51h-8.8v29h-2v-29h-8.8v-2h19.58Z" transform="translate(-8.6 -9.7)"/><path class="cls-6" d="M270.09,511.53h2v30.93h-2Z" transform="translate(-8.6 -9.7)"/><path class="cls-6" d="M313.21,511.62v30.84h-1.45L293.1,515.8v26.66h-2v-30.8h1.54l18.53,26.54V511.62Z" transform="translate(-8.6 -9.7)"/><path class="cls-6" d="M343.35,511.53l12.19,30.93h-2.15l-2.38-6a22.88,22.88,0,0,1-8.23,1.32,22.31,22.31,0,0,1-8.27-1.37l-2.33,6.07H330l12-30.93Zm6.91,23.06-7.57-19.28-7.43,19.23c.26.09.57.22.92.31a21.1,21.1,0,0,0,6.6.93A20.42,20.42,0,0,0,350.26,534.59Z" transform="translate(-8.6 -9.7)"/></g></svg>